# File created by Blade
# Date/Time:  Mon Nov 15 14:44:42 2010
#---------------------------------------------------------
:version 1.10
:name HOM
:units
  mass 1.0
  length 1.000000
  angle deg
:documentation
     Acclaim Skeleton File
:root
   axis xyz
   order TX TY TZ RX RY RZ
   position 0.000000 0.000000 0.000000
   orientation 0 0 0
:bonedata
   begin
      id 1
      name LeftUpLeg_dum
      direction 1.000000 0.000000 0.000000
      length 4.719518
      axis 0.0 0.0 0.0 xyz
   end
   begin
      id 2
      name RightUpLeg_dum
      direction -1.000000 0.000000 0.000000
      length 4.719518
      axis 0.0 0.0 0.0 xyz
   end
   begin
      id 3
      name Spine_dum
      direction 0.000000 1.000000 0.000000
      length 0.039370
      axis 0.0 0.0 0.0 xyz
   end
   begin
      id 4
      name LeftUpLeg
      direction 0.000000 -1.000000 0.000000
      length 19.141694
      axis 0.0 0.0 0.0 xyz
      dof rx ry rz
   end
   begin
      id 5
      name LeftLeg
      direction 0.000000 -1.000000 0.000000
      length 19.555040
      axis 0.0 0.0 0.0 xyz
      dof rx ry rz
   end
   begin
      id 6
      name LeftFoot
      direction 0.000000 -0.258819 0.965926
      length 6.929396
      axis 15.0 0.0 0.0 xyz
      dof rx ry rz
   end
   begin
      id 7
      name LeftToeBase
      direction 0.000000 0.000000 1.000000
      length 2.952750
      axis 0.0 0.0 0.0 xyz
      dof rx ry rz
   end
   begin
      id 8
      name RightUpLeg
      direction 0.000000 -1.000000 0.000000
      length 19.141694
      axis 0.0 0.0 0.0 xyz
      dof rx ry rz
   end
   begin
      id 9
      name RightLeg
      direction 0.000000 -1.000000 0.000000
      length 19.555040
      axis 0.0 0.0 0.0 xyz
      dof rx ry rz
   end
   begin
      id 10
      name RightFoot
      direction 0.000000 -0.258819 0.965926
      length 6.929396
      axis 15.0 0.0 0.0 xyz
      dof rx ry rz
   end
   begin
      id 11
      name RightToeBase
      direction 0.000000 0.000000 1.000000
      length 2.952750
      axis 0.0 0.0 0.0 xyz
      dof rx ry rz
   end
   begin
      id 12
      name Spine
      direction 0.000000 1.000000 0.000000
      length 11.965764
      axis 0.0 0.0 0.0 xyz
      dof rx ry rz
   end
   begin
      id 13
      name Spine1
      direction 0.000000 1.000000 0.000000
      length 0.000000
      axis 0.0 0.0 0.0 xyz
      dof rx ry rz
   end
   begin
      id 14
      name Spine1_dum1
      direction 0.000000 1.000000 0.000000
      length 9.788721
      axis 0.0 0.0 0.0 xyz
   end
   begin
      id 15
      name Spine1_dum2
      direction 0.000000 1.000000 0.000000
      length 9.788721
      axis 0.0 0.0 0.0 xyz
   end
   begin
      id 16
      name Spine1_dum3
      direction 0.000000 1.000000 0.000000
      length 9.788721
      axis 0.0 0.0 0.0 xyz
   end
   begin
      id 17
      name Neck
      direction 0.000000 1.000000 0.000000
      length 7.029632
      axis 0.0 0.0 0.0 xyz
      dof rx ry rz
   end
   begin
      id 18
      name Head
      direction 0.000000 1.000000 0.000000
      length 4.527550
      axis 0.0 0.0 0.0 xyz
      dof rx ry rz
   end
   begin
      id 19
      name LeftShoulder
      direction 1.000000 -0.000004 0.000000
      length 9.320257
      axis 0.0 0.0 -90.0 xyz
      dof rx ry rz
   end
   begin
      id 20
      name LeftArm
      direction 1.000000 -0.000004 0.000000
      length 12.801352
      axis 0.0 0.0 -90.0 xyz
      dof rx ry rz
   end
   begin
      id 21
      name LeftForeArm
      direction 1.000000 -0.000004 0.000000
      length 11.278127
      axis 0.0 0.0 -90.0 xyz
      dof rx ry rz
   end
   begin
      id 22
      name LeftHand
      direction 0.000000 0.000000 0.000000
      length 0.000000
      axis 0.0 0.0 -90.0 xyz
      dof rx ry rz
   end
   begin
      id 23
      name LeftHand_dum1
      direction 0.000000 0.000000 0.000000
      length 0.000000
      axis 0.0 0.0 -90.0 xyz
   end
   begin
      id 24
      name LeftHand_dum2
      direction 1.000000 -0.000004 0.000000
      length 3.937000
      axis 0.0 0.0 -90.0 xyz
   end
   begin
      id 25
      name LeftHandThumb
      direction 0.000000 0.000000 1.000000
      length 3.937000
      axis 0.0 0.0 -90.0 xyz
      dof rx ry rz
   end
   begin
      id 26
      name RightShoulder
      direction -1.000000 -0.000004 0.000000
      length 9.320257
      axis 0.0 0.0 90.0 xyz
      dof rx ry rz
   end
   begin
      id 27
      name RightArm
      direction -1.000000 -0.000004 0.000000
      length 12.801352
      axis 0.0 0.0 90.0 xyz
      dof rx ry rz
   end
   begin
      id 28
      name RightForeArm
      direction -1.000000 -0.000004 0.000000
      length 11.278127
      axis 0.0 0.0 90.0 xyz
      dof rx ry rz
   end
   begin
      id 29
      name RightHand
      direction 0.000000 0.000000 0.000000
      length 0.000000
      axis 0.0 0.0 90.0 xyz
      dof rx ry rz
   end
   begin
      id 30
      name RightHand_dum1
      direction 0.000000 0.000000 0.000000
      length 0.000000
      axis 0.0 0.0 90.0 xyz
   end
   begin
      id 31
      name RightHand_dum2
      direction -1.000000 -0.000004 0.000000
      length 5.393690
      axis 0.0 0.0 90.0 xyz
   end
   begin
      id 32
      name RightHandThumb
      direction 0.000000 0.000000 1.000000
      length 3.937000
      axis 0.0 0.0 90.0 xyz
      dof rx ry rz
   end
:hierarchy
   begin
      root LeftUpLeg_dum RightUpLeg_dum Spine_dum
      LeftUpLeg_dum LeftUpLeg
      RightUpLeg_dum RightUpLeg
      Spine_dum Spine
      LeftUpLeg LeftLeg
      LeftLeg LeftFoot
      LeftFoot LeftToeBase
      RightUpLeg RightLeg
      RightLeg RightFoot
      RightFoot RightToeBase
      Spine Spine1
      Spine1 Spine1_dum1 Spine1_dum2 Spine1_dum3
      Spine1_dum1 Neck
      Spine1_dum2 LeftShoulder
      Spine1_dum3 RightShoulder
      Neck Head
      LeftShoulder LeftArm
      LeftArm LeftForeArm
      LeftForeArm LeftHand
      LeftHand LeftHand_dum1 LeftHand_dum2
      LeftHand_dum1 LeftHandThumb
      RightShoulder RightArm
      RightArm RightForeArm
      RightForeArm RightHand
      RightHand RightHand_dum1 RightHand_dum2
      RightHand_dum1 RightHandThumb
   end

# File created by Blade
# Date/Time:  Mon Nov 15 14:56:25 2010
# Frame Rate: 200.000 fps
#------------------------------------------------------
:FULLY-SPECIFIED
:DEGREES
928
root  2.024577 41.505879 104.419337 -15.036747 2.965486 0.582840
LeftUpLeg  19.269794 10.477410 -0.112821
LeftLeg  -5.709580 0.000000 -0.000000
LeftFoot  9.866998 3.187702 5.577033
LeftToeBase  -13.440071 0.000000 -0.000000
RightUpLeg  20.218686 -6.872360 -0.487040
RightLeg  -5.408586 0.000000 -0.000000
RightFoot  5.354348 -11.588676 -8.724276
RightToeBase  -24.090312 0.000000 -0.000000
Spine  13.701679 -2.038066 0.773940
Spine1  -0.350529 0.387370 -3.220325
Neck  10.160551 -2.631441 -2.411654
Head  -15.073890 -6.501862 3.556414
LeftShoulder  -13.876433 6.055670 17.768587
LeftArm  17.935971 -45.054236 -39.593479
LeftForeArm  11.096818 -0.000000 0.000000
LeftHand  -9.336717 12.957126 -13.306216
LeftHandThumb  0.000000 -0.000000 0.000000
RightShoulder  -15.977883 -11.417080 -18.605564
RightArm  11.443559 30.128511 39.644951
RightForeArm  15.518657 -0.000000 0.000000
RightHand  -3.339928 -0.567829 16.897217
RightHandThumb  0.000000 -0.000000 0.000000
929
root  2.020947 41.505871 104.428753 -15.030051 2.963585 0.589665
LeftUpLeg  19.274945 10.501395 -0.106609
LeftLeg  -5.706439 0.000000 -0.000000
LeftFoot  9.868411 3.168417 5.583208
LeftToeBase  -13.417666 0.000000 -0.000000
RightUpLeg  20.215480 -6.864878 -0.485443
RightLeg  -5.394167 0.000000 -0.000000
RightFoot  5.352215 -11.599131 -8.733419
RightToeBase  -24.017157 0.000000 -0.000000
Spine  13.716629 -2.040735 0.770539
Spine1  -0.355844 0.382237 -3.236548
Neck  10.184507 -2.619551 -2.414320
Head  -15.106515 -6.481781 3.552752
LeftShoulder  -13.866957 6.068166 17.749987
LeftArm  17.966078 -44.973328 -39.575248
LeftForeArm  11.123895 -0.000000 0.000000
LeftHand  -8.932554 12.802586 -13.342757
LeftHandThumb  0.000000 -0.000000 0.000000
RightShoulder  -15.956095 -11.412423 -18.613122
RightArm  11.473560 30.147012 39.696595
RightForeArm  15.567939 -0.000000 0.000000
RightHand  -3.289494 -0.595086 16.930677
RightHandThumb  0.000000 -0.000000 0.000000
930
root  2.016549 41.505705 104.438316 -15.023979 2.961329 0.595078
LeftUpLeg  19.284243 10.522109 -0.097493
LeftLeg  -5.709280 0.000000 -0.000000
LeftFoot  9.864882 3.148335 5.577884
LeftToeBase  -13.406195 0.000000 -0.000000
RightUpLeg  20.207878 -6.817879 -0.467544
RightLeg  -5.370882 0.000000 -0.000000
RightFoot  5.360157 -11.653457 -8.760987
RightToeBase  -24.011458 0.000000 -0.000000
Spine  13.729180 -2.041996 0.764722
Spine1  -0.346842 0.378454 -3.249716
Neck  10.158821 -2.592054 -2.418065
Head  -15.085750 -6.471159 3.549759
LeftShoulder  -13.855704 6.076022 17.742817
LeftArm  17.969850 -44.908635 -39.535663
LeftForeArm  11.145781 -0.000000 0.000000
LeftHand  -8.799471 12.735361 -13.211270
LeftHandThumb  0.000000 -0.000000 0.000000
RightShoulder  -15.942694 -11.402110 -18.608644
RightArm  11.475945 30.166360 39.705790
RightForeArm  15.638527 -0.000000 0.000000
RightHand  -3.331028 -0.643399 16.988713
RightHandThumb  0.000000 -0.000000 0.000000
931
root  2.012128 41.505525 104.447977 -15.017907 2.959073 0.600491
LeftUpLeg  19.293545 10.542822 -0.088374
LeftLeg  -5.712122 0.000000 -0.000000
LeftFoot  9.861355 3.128253 5.572561
LeftToeBase  -13.394723 0.000000 -0.000000
RightUpLeg  20.200291 -6.770878 -0.449652
RightLeg  -5.347598 0.000000 -0.000000
RightFoot  5.368127 -11.707780 -8.788568
RightToeBase  -24.005759 0.000000 -0.000000
Spine  13.741732 -2.043255 0.758905
Spine1  -0.337839 0.374673 -3.262885
Neck  10.133133 -2.564558 -2.421822
Head  -15.064987 -6.460536 3.546770
LeftShoulder  -13.844452 6.083879 17.735648
LeftArm  17.973680 -44.843943 -39.496117
LeftForeArm  11.167666 -0.000000 0.000000
LeftHand  -8.666582 12.667838 -13.079979
LeftHandThumb  0.000000 -0.000000 0.000000
RightShoulder  -15.929292 -11.391798 -18.604162
RightArm  11.478334 30.185707 39.714988
RightForeArm  15.709115 -0.000000 0.000000
RightHand  -3.372611 -0.691669 17.046785
RightHandThumb  0.000000 -0.000000 0.000000
932
root  2.008512 41.505472 104.457554 -15.009137 2.951072 0.606962
LeftUpLeg  19.302817 10.586669 -0.076589
LeftLeg  -5.717367 0.000000 -0.000000
LeftFoot  9.864338 3.095730 5.578254
LeftToeBase  -13.364868 0.000000 -0.000000
RightUpLeg  20.196500 -6.719635 -0.432803
RightLeg  -5.339667 0.000000 -0.000000
RightFoot  5.375596 -11.757519 -8.803857
RightToeBase  -23.949194 0.000000 -0.000000
Spine  13.753103 -2.045193 0.754295
Spine1  -0.332060 0.370749 -3.275068
Neck  10.144903 -2.530988 -2.434765
Head  -15.109086 -6.442002 3.557381
LeftShoulder  -13.838506 6.082199 17.736406
LeftArm  17.962548 -44.809528 -39.435619
LeftForeArm  11.152984 -0.000000 0.000000
LeftHand  -8.673807 12.742368 -12.960365
LeftHandThumb  0.000000 -0.000000 0.000000
RightShoulder  -15.912219 -11.391527 -18.609919
RightArm  11.475651 30.143654 39.702274
RightForeArm  15.744055 -0.000000 0.000000
RightHand  -3.319313 -0.772676 17.053175
RightHandThumb  0.000000 -0.000000 0.000000
933
root  2.005018 41.505414 104.467306 -15.000368 2.943071 0.613432
LeftUpLeg  19.312098 10.630514 -0.064795
LeftLeg  -5.722613 0.000000 -0.000000
LeftFoot  9.867316 3.063207 5.583945
LeftToeBase  -13.335013 0.000000 -0.000000
RightUpLeg  20.192725 -6.668391 -0.415959
RightLeg  -5.331737 0.000000 -0.000000
RightFoot  5.383080 -11.807256 -8.819155
RightToeBase  -23.892629 0.000000 -0.000000
Spine  13.764474 -2.047130 0.749685
Spine1  -0.326281 0.366827 -3.287252
Neck  10.156666 -2.497416 -2.447702
Head  -15.153181 -6.423460 3.567977
LeftShoulder  -13.832560 6.080520 17.737164
LeftArm  17.951474 -44.775105 -39.375167
LeftForeArm  11.138302 -0.000000 0.000000
LeftHand  -8.680874 12.816913 -12.840726
LeftHandThumb  0.000000 -0.000000 0.000000
RightShoulder  -15.895147 -11.391255 -18.615675
RightArm  11.472980 30.101601 39.689568
RightForeArm  15.778996 -0.000000 0.000000
RightHand  -3.266023 -0.853688 17.059489
RightHandThumb  0.000000 -0.000000 0.000000
934
root  2.001187 41.505250 104.477539 -14.989354 2.935593 0.617961
LeftUpLeg  19.321610 10.659165 -0.054666
LeftLeg  -5.734429 0.000000 -0.000000
LeftFoot  9.880630 3.049116 5.589427
LeftToeBase  -13.329618 0.000000 -0.000000
RightUpLeg  20.189504 -6.610446 -0.395362
RightLeg  -5.327170 0.000000 -0.000000
RightFoot  5.397943 -11.857127 -8.845360
RightToeBase  -23.891664 0.000000 -0.000000
Spine  13.773616 -2.050092 0.743314
Spine1  -0.326611 0.361069 -3.295710
Neck  10.178595 -2.471214 -2.456356
Head  -15.197551 -6.399007 3.565831
LeftShoulder  -13.819099 6.115721 17.740313
LeftArm  17.935952 -44.802299 -39.305312
LeftForeArm  11.099977 -0.000000 0.000000
LeftHand  -8.684653 12.842934 -12.783004
LeftHandThumb  0.000000 -0.000000 0.000000
RightShoulder  -15.881487 -11.396205 -18.620100
RightArm  11.468794 30.065648 39.658711
RightForeArm  15.838324 -0.000000 0.000000
RightHand  -3.412009 -0.945004 17.071857
RightHandThumb  0.000000 -0.000000 0.000000
935
root  1.997180 41.505025 104.487933 -14.978341 2.928114 0.622489
LeftUpLeg  19.331128 10.687814 -0.044532
LeftLeg  -5.746246 0.000000 -0.000000
LeftFoot  9.893942 3.035023 5.594907
LeftToeBase  -13.324223 0.000000 -0.000000
RightUpLeg  20.186305 -6.552499 -0.374770
RightLeg  -5.322602 0.000000 -0.000000
RightFoot  5.412832 -11.906991 -8.871582
RightToeBase  -23.890698 0.000000 -0.000000
Spine  13.782758 -2.053052 0.736943
Spine1  -0.326941 0.355311 -3.304169
Neck  10.200519 -2.445008 -2.464999
Head  -15.241920 -6.374555 3.563665
LeftShoulder  -13.805634 6.150922 17.743469
LeftArm  17.920375 -44.829479 -39.235415
LeftForeArm  11.061651 -0.000000 0.000000
LeftHand  -8.688406 12.868960 -12.725278
LeftHandThumb  0.000000 -0.000000 0.000000
RightShoulder  -15.867826 -11.401153 -18.624526
RightArm  11.464632 30.029693 39.627868
RightForeArm  15.897652 -0.000000 0.000000
RightHand  -3.558018 -1.036288 17.084457
RightHandThumb  0.000000 -0.000000 0.000000
936
root  1.992982 41.504750 104.498263 -14.964169 2.914086 0.627893
LeftUpLeg  19.342015 10.724107 -0.032439
LeftLeg  -5.762331 0.000000 -0.000000
LeftFoot  9.893269 3.007607 5.590431
LeftToeBase  -13.289735 0.000000 -0.000000
RightUpLeg  20.181347 -6.503912 -0.356117
RightLeg  -5.323179 0.000000 -0.000000
RightFoot  5.418966 -11.952244 -8.869060
RightToeBase  -23.883019 0.000000 -0.000000
Spine  13.791361 -2.055332 0.727996
Spine1  -0.327136 0.349085 -3.311306
Neck  10.206795 -2.419684 -2.463873
Head  -15.271752 -6.337111 3.541662
LeftShoulder  -13.801615 6.149781 17.754559
LeftArm  17.879799 -44.857246 -39.123625
LeftForeArm  10.966788 -0.000000 0.000000
LeftHand  -8.687418 12.860409 -12.661883
LeftHandThumb  0.000000 -0.000000 0.000000
RightShoulder  -15.850470 -11.406586 -18.628472
RightArm  11.450860 29.981891 39.577721
RightForeArm  15.934578 -0.000000 0.000000
RightHand  -3.613475 -1.148592 17.109796
RightHandThumb  0.000000 -0.000000 0.000000
937
root  1.988663 41.504434 104.508550 -14.949999 2.900056 0.633293
LeftUpLeg  19.352910 10.760397 -0.020337
LeftLeg  -5.778416 0.000000 -0.000000
LeftFoot  9.892598 2.980190 5.585955
LeftToeBase  -13.255246 0.000000 -0.000000
RightUpLeg  20.176406 -6.455323 -0.337470
RightLeg  -5.323756 0.000000 -0.000000
RightFoot  5.425100 -11.997496 -8.866543
RightToeBase  -23.875340 0.000000 -0.000000
Spine  13.799964 -2.057610 0.719048
Spine1  -0.327330 0.342859 -3.318442
Neck  10.213071 -2.394359 -2.462744
Head  -15.301597 -6.299678 3.519640
LeftShoulder  -13.797597 6.148638 17.765648
LeftArm  17.839127 -44.884955 -39.011753
LeftForeArm  10.871925 -0.000000 0.000000
LeftHand  -8.686441 12.851858 -12.598489
LeftHandThumb  0.000000 -0.000000 0.000000
RightShoulder  -15.833112 -11.412018 -18.632419
RightArm  11.437142 29.934078 39.527612
RightForeArm  15.971505 -0.000000 0.000000
RightHand  -3.668985 -1.260871 17.135246
RightHandThumb  0.000000 -0.000000 0.000000
